{"title":"Kingsman-The Secret Service 2014 NEW HDCAM XviD MP3-MURD3R","uid":11732604,"size":1625710525,"categoryP":"video","categoryS":"movies","magnet":"?xt=urn:btih:8a8a71c3717c40fc2487913386c1ccc8caaf2811&amp;dn=Kingsman-The+Secret+Service+2014+NEW+HDCAM+XviD+MP3-MURD3R&amp;tr=udp%3A%2F%2Ftracker.openbittorrent.com%3A80&amp;tr=udp%3A%2F%2Fopen.demonii.com%3A1337&amp;tr=udp%3A%2F%2Ftracker.coppersurfer.tk%3A6969&amp;tr=udp%3A%2F%2Fexodus.desync.com%3A6969","seeders":9,"leechers":3,"uploader":"yerisan710","files":3,"time":1425435161,"description":"-------------------------------------------------------------------------------\n                              Yerisan Group\n-------------------------------------------------------------------------------\n                        (for your consideration)\n\n*******************************************************************************\n          Kingsman The Secret Service 2014 NEW HDCAM XviD AC3 MURD3R\n*******************************************************************************\n\n\n\n                      General\n**************************************************************\nSOURCE : Hive-CM8....TY\n**************************************************************\nFormat : AVI\nFormat/Info : Audio Video Interleave\nFile size : 1.50 GiB\nDuration : 1h 52mn\nOverall bit rate : 1 906 Kbps\n**************************************************************\n\n**************************************************************\n                      Video\n**************************************************************\nID : 0\nFormat : MPEG-4 Visual\nFormat profile : Advanced Simple@L5\nFormat settings, BVOP : 2\nFormat settings, QPel : Yes\nFormat settings, GMC : No warppoints\nFormat settings, Matrix : Default (H.263)\nMuxing mode : Packed bitstream\nCodec ID : XVID\nCodec ID/Hint : XviD\nDuration : 1h 52mn\nBit rate : 1 800 Kbps\nWidth : 720 pixels\nHeight : 304 pixels\nDisplay aspect ratio : 2.35:1\nFrame rate : 29.970 fps\nColor space : YUV\nChroma subsampling : 4:2:0\nBit depth : 8 bits\nScan type : Progressive\nCompression mode : Lossy\nBits/(Pixel*Frame) : 0.274\nStream size : 1.41 GiB (94%)\nWriting library : XviD 73\n**************************************************************\n\n**************************************************************\n                  Audio\n**************************************************************\nID : 1\nFormat : AC-3\nFormat/Info : Audio Coding 3\nMode extension : CM (complete main)\nFormat settings, Endianness : Big\nCodec ID : 2000\nDuration : 1h 52mn\nBit rate mode : Constant\nBit rate : 96.0 Kbps\nChannel(s) : 2 channels\nChannel positions : Front: L R\nSampling rate : 32.0 KHz\nBit depth : 16 bits\nCompression mode : Lossy\nStream size : 77.2 MiB (5%)\nAlignment : Aligned on interleaves\nInterleave, duration : 48 ms (1.44 video frame)\n**************************************************************\n\nScreenShot..........: &lt;a href=&quot;\nhttp://www.dmtinc.cl/imagenes/5GNaI.png&quot; rel=&quot;nofollow&quot; target=&quot;_NEW&quot;&gt;\nhttp://www.dmtinc.cl/imagenes/5GNaI.png&lt;/a&gt; &lt;a href=&quot;\nhttp://www.dmtinc.cl/imagenes/47PBx.png&quot; rel=&quot;nofollow&quot; target=&quot;_NEW&quot;&gt;\nhttp://www.dmtinc.cl/imagenes/47PBx.png&lt;/a&gt; &lt;a href=&quot;\nhttp://www.dmtinc.cl/imagenes/9qy4T.png&quot; rel=&quot;nofollow&quot; target=&quot;_NEW&quot;&gt;\nhttp://www.dmtinc.cl/imagenes/9qy4T.png&lt;/a&gt; &lt;a href=&quot;\nhttp://www.dmtinc.cl/imagenes/3X5zq.png&quot; rel=&quot;nofollow&quot; target=&quot;_NEW&quot;&gt;\nhttp://www.dmtinc.cl/imagenes/3X5zq.png&lt;/a&gt;\n\n-------------------------------------------------------------------------------\n                              Yerisan Group\n-------------------------------------------------------------------------------\n                        (for your consideration)","torrent":{"xt":"urn:btih:8a8a71c3717c40fc2487913386c1ccc8caaf2811","amp;dn":"Kingsman-The+Secret+Service+2014+NEW+HDCAM+XviD+MP3-MURD3R","amp;tr":["udp%3A%2F%2Ftracker.openbittorrent.com%3A80","udp%3A%2F%2Fopen.demonii.com%3A1337","udp%3A%2F%2Ftracker.coppersurfer.tk%3A6969","udp%3A%2F%2Fexodus.desync.com%3A6969"],"infoHash":"8a8a71c3717c40fc2487913386c1ccc8caaf2811","infoHashBuffer":{"type":"Buffer","data":[138,138,113,195,113,124,64,252,36,135,145,51,134,193,204,200,202,175,40,17]},"announce":[],"urlList":[]}}